# xmcd
#
# Track frame offsets:
#	150
#	16095
#	29915
#	44142
#	59472
#	75292
#	88857
#	108735
#	123870
#	142888
#	161288
#	172448
#	191445
#	206949
#
# Disc length: 2975
#
# Revision: 2
# Processed by: cddbd v1.5.1PL0 Copyright (c) Steve Scherf et al.
# Submitted via: FreeRIP 2.30 
# Normalized: r1:DSETVAR2,TDELIM( - )
#
DISCID=c70b9d0e
DTITLE=Various Artist - Love Hits
DYEAR=1900
DGENRE=
TTITLE0=Olivia Newton John - Xanadu
TTITLE1=B.J. Thomas - Raindrops Keep Falling On My Head
TTITLE2=Simon and Garfunkel - If I Could (El Condor Passa)
TTITLE3=Cat Stevens - Morning Has Broken
TTITLE4=Barry White - You're The First, The Last, My Everything
TTITLE5=Lee Marvin - Wandrin Star
TTITLE6=Gloria Gaynor - I Will Survive
TTITLE7=George McCrae - Rock Your Baby
TTITLE8=The Kinks - Lola
TTITLE9=Lobo - I Love You To Want Me
TTITLE10=The Equals - Let's Go To The Moon
TTITLE11=Ben E. King - Supernatural Thing
TTITLE12=The Who - The Seeker
TTITLE13=Player - Baby Come Back
EXTD=
EXTT0=
EXTT1=
EXTT2=
EXTT3=
EXTT4=
EXTT5=
EXTT6=
EXTT7=
EXTT8=
EXTT9=
EXTT10=
EXTT11=
EXTT12=
EXTT13=
PLAYORDER=
